<?xml version="1.0" encoding="UTF-8" standalone="no"?>
<svg width="67px" height="102px" viewBox="0 0 67 102" version="1.1" xmlns="http://www.w3.org/2000/svg" xmlns:xlink="http://www.w3.org/1999/xlink" xmlns:sketch="http://www.bohemiancoding.com/sketch/ns">
    <!-- Generator: Sketch 3.0.2 (7799) - http://www.bohemiancoding.com/sketch -->
    <title>sitepenLogo</title>
    <description>Created with Sketch.</description>
    <defs></defs>
    <g id="Page-1" stroke="none" stroke-width="1" fill="none" fill-rule="evenodd" sketch:type="MSPage">
        <g id="sitepenLogo" sketch:type="MSLayerGroup" transform="translate(0.000000, 1.000000)">
            <g id="Rectangle-2-+-Layer_x25_201" transform="translate(0.000000, 13.000000)" sketch:type="MSShapeGroup">
                <rect id="Rectangle-2" fill-opacity="0.899999559" fill="#FFFFFF" x="0" y="0" width="67" height="68" rx="6"></rect>
                <g id="Layer_x25_201" transform="translate(15.000000, 6.000000)" fill="#0F4B67">
                    <g id="Group">
                        <g id="Shape">
                            <path d="M30.2722535,21.2616822 L20.6835211,22.3581308 L9.56788732,33.4414206 C7.59959155,35.4045607 5.2696338,34.6231776 5.53280282,35.0685607 L16.1867183,34.1416822 L27.6218028,22.7380935 C28.379,21.9828785 29.299831,21.4914393 30.2722535,21.2616822 L30.2722535,21.2616822 Z" opacity="0.4"></path>
                            <g>
                                <path d="M25.3418732,1.88672897 L1.63164789,25.5281495 C-0.550830986,27.7042991 -0.543535211,31.2391028 1.64884507,33.4251963 C3.8401831,35.610243 7.38488732,35.6170467 9.5673662,33.4408972 L33.2770704,9.79947664 C35.4600704,7.62280374 35.4517324,4.08904673 33.2603944,1.904 C31.0685352,-0.282093458 27.5248732,-0.29046729 25.3418732,1.88672897 L25.3418732,1.88672897 Z"></path>
                                <path d="M27.6212817,22.7380935 L3.91470423,46.3768972 C1.73222535,48.5525234 1.74056338,52.0888972 3.93242254,54.275514 C6.12480282,56.4610841 9.66794366,56.4663178 11.8504225,54.2896449 L35.5575211,30.6508411 C37.7394789,28.4746916 37.7363521,24.9404112 35.5439718,22.7543178 C33.3515915,20.5687477 29.8037606,20.5624673 27.6212817,22.7380935 L27.6212817,22.7380935 Z"></path>
                            </g>
                        </g>
                    </g>
                </g>
            </g>
            <path d="M8.348,6.908 C7.928,7.112 7.28,7.244 6.644,7.244 C4.676,7.244 3.536,5.972 3.536,3.992 C3.536,1.868 4.796,0.656 6.692,0.656 C7.364,0.656 7.928,0.8 8.324,0.992 L8.576,0.14 C8.3,-0.004 7.664,-0.22 6.656,-0.22 C4.148,-0.22 2.432,1.496 2.432,4.028 C2.432,6.68 4.148,8.12 6.428,8.12 C7.412,8.12 8.18,7.928 8.564,7.736 L8.348,6.908 Z M9.872,8 L10.916,8 L10.916,4.496 L11.9,4.496 C12.848,4.532 13.28,4.952 13.52,6.068 C13.748,7.076 13.928,7.772 14.06,8 L15.14,8 C14.972,7.688 14.78,6.908 14.516,5.78 C14.324,4.94 13.952,4.364 13.328,4.148 L13.328,4.112 C14.18,3.824 14.852,3.116 14.852,2.048 C14.852,1.424 14.624,0.872 14.216,0.512 C13.712,0.056 12.992,-0.148 11.876,-0.148 C11.156,-0.148 10.4,-0.088 9.872,0.02 L9.872,8 Z M10.916,0.752 C11.084,0.704 11.444,0.656 11.948,0.656 C13.052,0.668 13.808,1.124 13.808,2.168 C13.808,3.092 13.1,3.704 11.984,3.704 L10.916,3.704 L10.916,0.752 Z M20.516,3.344 L17.372,3.344 L17.372,0.788 L20.696,0.788 L20.696,-0.088 L16.328,-0.088 L16.328,8 L20.876,8 L20.876,7.124 L17.372,7.124 L17.372,4.208 L20.516,4.208 L20.516,3.344 Z M26.408,5.456 L27.272,8 L28.388,8 L25.628,-0.088 L24.368,-0.088 L21.62,8 L22.7,8 L23.54,5.456 L26.408,5.456 Z M23.756,4.64 L24.548,2.3 C24.704,1.808 24.836,1.316 24.956,0.836 L24.98,0.836 C25.1,1.304 25.22,1.784 25.4,2.312 L26.192,4.64 L23.756,4.64 Z M31.112,8 L32.168,8 L32.168,0.8 L34.64,0.8 L34.64,-0.088 L28.652,-0.088 L28.652,0.8 L31.112,0.8 L31.112,8 Z M39.728,3.344 L36.584,3.344 L36.584,0.788 L39.908,0.788 L39.908,-0.088 L35.54,-0.088 L35.54,8 L40.088,8 L40.088,7.124 L36.584,7.124 L36.584,4.208 L39.728,4.208 L39.728,3.344 Z M41.444,7.976 C41.972,8.036 42.596,8.072 43.34,8.072 C44.912,8.072 46.16,7.664 46.916,6.908 C47.672,6.164 48.08,5.084 48.08,3.764 C48.08,2.456 47.66,1.52 46.94,0.86 C46.232,0.2 45.164,-0.148 43.664,-0.148 C42.836,-0.148 42.08,-0.076 41.444,0.02 L41.444,7.976 Z M42.488,0.788 C42.764,0.728 43.172,0.68 43.712,0.68 C45.92,0.68 47,1.892 46.988,3.8 C46.988,5.984 45.776,7.232 43.544,7.232 C43.136,7.232 42.752,7.22 42.488,7.172 L42.488,0.788 Z M51.98,7.976 C52.328,8.024 52.88,8.072 53.6,8.072 C54.92,8.072 55.832,7.832 56.396,7.316 C56.804,6.92 57.08,6.392 57.08,5.696 C57.08,4.496 56.18,3.86 55.412,3.668 L55.412,3.644 C56.264,3.332 56.78,2.648 56.78,1.868 C56.78,1.232 56.528,0.752 56.108,0.44 C55.604,0.032 54.932,-0.148 53.888,-0.148 C53.156,-0.148 52.436,-0.076 51.98,0.02 L51.98,7.976 Z M53.024,0.728 C53.192,0.692 53.468,0.656 53.948,0.656 C55.004,0.656 55.724,1.028 55.724,1.976 C55.724,2.756 55.076,3.332 53.972,3.332 L53.024,3.332 L53.024,0.728 Z M53.024,4.124 L53.888,4.124 C55.028,4.124 55.976,4.58 55.976,5.684 C55.976,6.86 54.98,7.256 53.9,7.256 C53.528,7.256 53.228,7.244 53.024,7.208 L53.024,4.124 Z M61.34,8 L61.34,4.556 L64.052,-0.088 L62.864,-0.088 L61.7,2.144 C61.388,2.756 61.112,3.284 60.884,3.812 L60.86,3.812 C60.608,3.248 60.368,2.756 60.056,2.144 L58.916,-0.088 L57.728,-0.088 L60.284,4.568 L60.284,8 L61.34,8 Z" id="CREATED-BY" opacity="0.899999976" fill="#FFFFFF" sketch:type="MSShapeGroup"></path>
            <path d="M4.741,96.563 C5.387,96.943 6.318,97.19 7.325,97.19 C9.51,97.19 10.764,96.05 10.764,94.435 C10.764,93.067 9.947,92.269 8.351,91.661 C7.154,91.205 6.603,90.863 6.603,90.103 C6.603,89.419 7.154,88.849 8.142,88.849 C8.997,88.849 9.662,89.153 10.023,89.381 L10.441,88.165 C9.928,87.861 9.111,87.595 8.18,87.595 C6.204,87.595 5.007,88.811 5.007,90.293 C5.007,91.395 5.786,92.307 7.439,92.896 C8.674,93.352 9.149,93.789 9.149,94.587 C9.149,95.347 8.579,95.955 7.363,95.955 C6.527,95.955 5.653,95.613 5.159,95.29 L4.741,96.563 Z M14.583,97 L14.583,87.804 L12.911,87.804 L12.911,97 L14.583,97 Z M13.747,84.175 C13.139,84.175 12.702,84.631 12.702,85.22 C12.702,85.79 13.12,86.246 13.709,86.246 C14.374,86.246 14.792,85.79 14.773,85.22 C14.773,84.631 14.374,84.175 13.747,84.175 Z M17.737,85.6 L17.737,87.804 L16.312,87.804 L16.312,89.077 L17.737,89.077 L17.737,94.093 C17.737,95.176 17.908,95.993 18.383,96.487 C18.782,96.943 19.409,97.19 20.188,97.19 C20.834,97.19 21.347,97.095 21.67,96.962 L21.594,95.708 C21.385,95.765 21.062,95.822 20.625,95.822 C19.694,95.822 19.371,95.176 19.371,94.036 L19.371,89.077 L21.765,89.077 L21.765,87.804 L19.371,87.804 L19.371,85.163 L17.737,85.6 Z M31.037,92.706 C31.056,92.535 31.094,92.269 31.094,91.927 C31.094,90.236 30.296,87.595 27.294,87.595 C24.615,87.595 22.981,89.78 22.981,92.554 C22.981,95.328 24.672,97.19 27.503,97.19 C28.966,97.19 29.973,96.886 30.562,96.62 L30.277,95.423 C29.65,95.689 28.928,95.898 27.731,95.898 C26.059,95.898 24.615,94.967 24.577,92.706 L31.037,92.706 Z M24.596,91.509 C24.729,90.35 25.47,88.792 27.161,88.792 C29.042,88.792 29.498,90.445 29.479,91.509 L24.596,91.509 Z M33.165,100.762 L34.818,100.762 L34.818,95.765 L34.856,95.765 C35.407,96.677 36.471,97.209 37.687,97.209 C39.853,97.209 41.867,95.575 41.867,92.269 C41.867,89.476 40.195,87.595 37.972,87.595 C36.471,87.595 35.388,88.26 34.704,89.381 L34.666,89.381 L34.59,87.804 L33.089,87.804 C33.127,88.678 33.165,89.628 33.165,90.806 L33.165,100.762 Z M34.818,91.68 C34.818,91.452 34.875,91.205 34.932,90.996 C35.255,89.742 36.319,88.925 37.459,88.925 C39.226,88.925 40.195,90.502 40.195,92.345 C40.195,94.454 39.169,95.898 37.402,95.898 C36.205,95.898 35.198,95.1 34.894,93.941 C34.856,93.732 34.818,93.504 34.818,93.257 L34.818,91.68 Z M51.367,92.706 C51.386,92.535 51.424,92.269 51.424,91.927 C51.424,90.236 50.626,87.595 47.624,87.595 C44.945,87.595 43.311,89.78 43.311,92.554 C43.311,95.328 45.002,97.19 47.833,97.19 C49.296,97.19 50.303,96.886 50.892,96.62 L50.607,95.423 C49.98,95.689 49.258,95.898 48.061,95.898 C46.389,95.898 44.945,94.967 44.907,92.706 L51.367,92.706 Z M44.926,91.509 C45.059,90.35 45.8,88.792 47.491,88.792 C49.372,88.792 49.828,90.445 49.809,91.509 L44.926,91.509 Z M53.495,97 L55.167,97 L55.167,91.471 C55.167,91.186 55.205,90.901 55.281,90.692 C55.566,89.761 56.421,88.982 57.523,88.982 C59.1,88.982 59.651,90.217 59.651,91.699 L59.651,97 L61.323,97 L61.323,91.509 C61.323,88.355 59.347,87.595 58.074,87.595 C56.554,87.595 55.49,88.45 55.034,89.324 L54.996,89.324 L54.901,87.804 L53.419,87.804 C53.476,88.564 53.495,89.343 53.495,90.293 L53.495,97 Z" id="sitepen" opacity="0.899999976" fill="#FFFFFF" sketch:type="MSShapeGroup"></path>
        </g>
    </g>
</svg>